# File created by Blade
# Date/Time:  Tue Apr 07 21:25:57 2015
# Frame Rate: 120.000 fps
#------------------------------------------------------
:FULLY-SPECIFIED
:DEGREES
563
root 10.071102 48.657648 6.588681 -0.083261 -50.439302 43.619217
Spine -21.345896 -35.539257 5.331758
Head -9.998870 -7.859691 -12.204624
LeftShoulder -23.373565 27.990778 28.670254
LeftArm 106.917756 -68.993287 -85.569443
LeftForeArm 7.897148 -0.000000 8.757672
LeftHand 20.782279 0.000000 41.195536
LeftHandThumb1 -26.253704 0.000000 33.147579
RightShoulder -19.031067 7.862094 -49.402580
RightArm -12.155396 27.633878 14.563933
RightForeArm -12.904957 -0.000000 10.398532
RightHand 14.886523 -0.000000 -17.444276
RightHandThumb1 -24.326973 -0.000000 -32.862282
LeftUpLeg 16.515973 0.114362 25.927352
LeftLeg 25.566955 -0.000000 -0.000000
LeftFoot 33.499520 23.437745 -16.847370
LeftToeBase 23.604019 -0.000000 -0.000000
RightUpLeg -100.959405 -51.236197 -13.352019
RightLeg -4.872754 -0.000000 0.000000
RightFoot 42.257162 -19.882313 -14.337867
RightToeBase 22.283349 -0.000000 -0.000000
564
root 9.900083 48.573810 6.553378 -1.222476 -49.410822 45.391035
Spine -21.526565 -35.992891 3.910434
Head -10.660806 -8.830366 -12.663267
LeftShoulder -23.989701 28.029865 27.642621
LeftArm 104.186436 -69.077411 -82.629007
LeftForeArm 7.672315 -0.000000 7.445423
LeftHand 19.510811 0.000000 41.532539
LeftHandThumb1 -26.253704 0.000000 33.147579
RightShoulder -19.584803 7.749289 -49.477721
RightArm -14.318147 27.429843 13.401818
RightForeArm -13.708430 0.000000 11.053856
RightHand 14.729998 -0.000000 -17.295094
RightHandThumb1 -24.326973 -0.000000 -32.862282
LeftUpLeg 17.006548 -1.996619 26.507760
LeftLeg 25.829290 -0.000000 -0.000000
LeftFoot 32.790335 24.319622 -15.087972
LeftToeBase 24.646934 -0.000000 -0.000000
RightUpLeg -106.658360 -51.625680 -9.594650
RightLeg -6.373476 -0.000000 0.000000
RightFoot 41.882392 -19.505798 -14.460886
RightToeBase 22.642755 -0.000000 -0.000000
565
root 9.733117 48.495252 6.473996 -2.140710 -48.639707 47.054402
Spine -21.694165 -36.154185 2.289014
Head -10.990335 -9.932351 -12.742513
LeftShoulder -24.265784 27.998288 27.160539
LeftArm 101.543370 -69.001989 -80.331679
LeftForeArm 7.361228 -0.000000 6.467750
LeftHand 19.654402 -0.000000 40.317754
LeftHandThumb1 -26.253704 0.000000 33.147579
RightShoulder -20.175339 8.004897 -49.472932
RightArm -16.428070 26.798133 12.323472
RightForeArm -15.103375 0.000000 11.876229
RightHand 14.609040 -0.000000 -17.295695
RightHandThumb1 -24.326973 -0.000000 -32.862282
LeftUpLeg 17.181359 -4.032078 26.848929
LeftLeg 26.206928 -0.000000 -0.000000
LeftFoot 32.072512 24.948201 -13.010913
LeftToeBase 25.426026 -0.000000 -0.000000
RightUpLeg -112.593111 -50.916175 -5.242184
RightLeg -7.746024 -0.000000 0.000000
RightFoot 41.843080 -19.052022 -14.115443
RightToeBase 22.628947 -0.000000 -0.000000
566
root 9.563151 48.425836 6.383657 -3.363015 -48.126253 49.020039
Spine -21.644062 -36.036989 0.027409
Head -10.752034 -11.010598 -12.293020
LeftShoulder -24.252214 28.134886 27.089604
LeftArm 98.579289 -68.852411 -77.813437
LeftForeArm 7.135617 -0.000000 5.413736
LeftHand 18.952649 -0.000000 38.533931
LeftHandThumb1 -26.253704 0.000000 33.147579
RightShoulder -20.622881 8.499434 -49.277748
RightArm -18.360879 25.675597 11.311411
RightForeArm -16.622858 0.000000 12.335634
RightHand 14.225744 -0.000000 -17.889458
RightHandThumb1 -24.326973 -0.000000 -32.862282
LeftUpLeg 17.477062 -5.993169 26.643209
LeftLeg 26.254742 -0.000000 -0.000000
LeftFoot 31.109112 25.920766 -11.417445
LeftToeBase 26.280026 -0.000000 -0.000000
RightUpLeg -117.869376 -49.234437 -1.352957
RightLeg -8.849481 -0.000000 0.000000
RightFoot 41.783641 -18.269485 -13.167165
RightToeBase 22.812837 -0.000000 -0.000000
567
root 9.389907 48.365918 6.291197 -4.860152 -47.793030 51.089412
Spine -21.331503 -35.821025 -2.616749
Head -9.962869 -11.793901 -11.545707
LeftShoulder -24.031939 28.395070 27.352629
LeftArm 95.463794 -68.636048 -75.337819
LeftForeArm 7.101285 -0.000000 4.244122
LeftHand 18.987117 -0.000000 36.824430
LeftHandThumb1 -26.253704 0.000000 33.147579
RightShoulder -20.886349 9.026004 -48.973182
RightArm -20.301265 24.632703 10.520290
RightForeArm -17.938243 -0.000000 13.024948
RightHand 14.090748 0.000000 -17.933124
RightHandThumb1 -24.326973 -0.000000 -32.862282
LeftUpLeg 17.789669 -7.577263 26.132944
LeftLeg 26.350065 -0.000000 -0.000000
LeftFoot 30.185658 26.674923 -9.988063
LeftToeBase 26.655422 -0.000000 -0.000000
RightUpLeg -121.502112 -47.130337 1.249739
RightLeg -9.764980 -0.000000 0.000000
RightFoot 41.973259 -17.315772 -12.053067
RightToeBase 22.722979 -0.000000 -0.000000
568
root 9.205660 48.304456 6.211159 -6.516317 -47.566203 53.024844
Spine -20.769694 -35.574491 -5.352537
Head -8.769514 -12.411027 -10.648127
LeftShoulder -23.687930 28.732821 27.748546
LeftArm 92.073632 -68.408591 -72.666940
LeftForeArm 7.358176 -0.000000 2.849057
LeftHand 18.772253 -0.000000 34.820546
LeftHandThumb1 -26.253704 0.000000 33.147579
RightShoulder -21.020286 9.293480 -48.575753
RightArm -21.925006 23.920706 10.140147
RightForeArm -18.801968 -0.000000 13.674948
RightHand 14.001016 -0.000000 -18.183444
RightHandThumb1 -24.326973 -0.000000 -32.862282
LeftUpLeg 18.229971 -9.089856 25.312412
LeftLeg 26.422615 -0.000000 -0.000000
LeftFoot 29.494837 27.168753 -9.033050
LeftToeBase 26.754834 -0.000000 -0.000000
RightUpLeg -123.439492 -45.087238 2.613297
RightLeg -10.261455 -0.000000 0.000000
RightFoot 42.027164 -16.720589 -10.789558
RightToeBase 22.929180 -0.000000 -0.000000
569
root 9.011561 48.235660 6.143145 -7.941322 -47.421997 54.411053
Spine -20.126804 -35.318052 -7.624172
Head -7.395428 -12.730940 -9.910710
LeftShoulder -23.220877 29.043595 28.103392
LeftArm 87.414058 -68.160583 -68.679666
LeftForeArm 7.417077 -0.000000 1.120136
LeftHand 18.778934 -0.000000 32.661493
LeftHandThumb1 -26.253704 0.000000 33.147579
RightShoulder -21.090605 9.038672 -48.172888
RightArm -23.135923 24.129253 10.187321
RightForeArm -19.207372 -0.000000 14.199208
RightHand 13.915690 -0.000000 -18.382827
RightHandThumb1 -24.326973 -0.000000 -32.862282
LeftUpLeg 18.509351 -9.906161 24.882308
LeftLeg 26.690895 -0.000000 -0.000000
LeftFoot 29.232445 26.838662 -8.444486
LeftToeBase 26.710189 -0.000000 -0.000000
RightUpLeg -123.625562 -43.623242 2.941034
RightLeg -10.576674 -0.000000 0.000000
RightFoot 42.332521 -16.693911 -9.687690
RightToeBase 22.994995 -0.000000 -0.000000
570
root 8.797746 48.166103 6.086731 -9.169653 -47.287231 55.504353
Spine -19.665284 -35.187687 -9.514592
Head -5.780443 -12.853263 -9.354646
LeftShoulder -22.809145 29.588576 28.241380
LeftArm 83.348798 -67.860721 -65.342446
LeftForeArm 7.544002 -0.000000 -0.685654
LeftHand 18.484604 -0.000000 31.305811
LeftHandThumb1 -26.253704 0.000000 33.147579
RightShoulder -21.062483 8.349206 -47.675204
RightArm -23.857479 25.028286 10.581491
RightForeArm -18.976730 0.000000 14.559943
RightHand 13.994944 -0.000000 -18.419283
RightHandThumb1 -24.326973 -0.000000 -32.862282
LeftUpLeg 18.612204 -10.289025 24.547479
LeftLeg 26.865633 -0.000000 -0.000000
LeftFoot 29.348268 26.299142 -8.503884
LeftToeBase 26.530677 -0.000000 -0.000000
RightUpLeg -122.653171 -42.732840 2.534767
RightLeg -10.563838 -0.000000 0.000000
RightFoot 42.731311 -17.329472 -8.828649
RightToeBase 23.074950 -0.000000 -0.000000
571
root 8.565620 48.090257 6.038615 -10.083816 -47.172731 56.109362
Spine -19.316202 -35.146564 -10.875562
Head -4.066448 -12.877143 -9.085265
LeftShoulder -22.219497 30.006101 28.307465
LeftArm 78.355783 -67.502283 -61.202485
LeftForeArm 7.559459 -0.000000 -2.531022
LeftHand 18.877203 -0.000000 29.366592
LeftHandThumb1 -26.253704 0.000000 33.147579
RightShoulder -21.017191 7.438047 -47.255149
RightArm -24.147889 26.303119 11.356588
RightForeArm -18.406390 -0.000000 14.772310
RightHand 14.071728 -0.000000 -18.469535
RightHandThumb1 -24.326973 -0.000000 -32.862282
LeftUpLeg 18.465606 -10.006831 24.623660
LeftLeg 27.111571 -0.000000 -0.000000
LeftFoot 29.911494 25.538102 -8.683346
LeftToeBase 26.263185 -0.000000 -0.000000
RightUpLeg -120.822690 -42.362019 1.785273
RightLeg -10.079626 -0.000000 0.000000
RightFoot 43.137269 -17.530845 -8.448477
RightToeBase 23.173398 -0.000000 -0.000000
572
root 8.319760 48.009013 5.991820 -10.735028 -47.012331 56.307035
Spine -18.995438 -35.250564 -11.859681
Head -2.346883 -12.805543 -8.990130
LeftShoulder -21.726137 30.530594 28.071648
LeftArm 74.709488 -67.184550 -58.557343
LeftForeArm 7.344981 -0.000000 -4.043295
LeftHand 18.582712 -0.000000 28.622005
LeftHandThumb1 -26.253704 0.000000 33.147579
RightShoulder -21.029961 6.461740 -46.893239
RightArm -24.005133 27.650907 12.511403
RightForeArm -17.473802 -0.000000 14.933475
RightHand 14.168342 -0.000000 -18.702095
RightHandThumb1 -24.326973 -0.000000 -32.862282
LeftUpLeg 18.055543 -9.211218 25.027505
LeftLeg 27.446836 -0.000000 -0.000000
LeftFoot 30.595739 24.858325 -8.796086
LeftToeBase 25.941613 -0.000000 -0.000000
RightUpLeg -118.247231 -42.454323 0.676627
RightLeg -9.114526 -0.000000 0.000000
RightFoot 43.510663 -17.277596 -8.556606
RightToeBase 23.405326 -0.000000 -0.000000
573
root 8.058233 47.920592 5.942487 -11.262441 -46.809380 56.284761
Spine -18.680604 -35.513063 -12.686149
Head -0.567837 -12.564544 -8.906827
LeftShoulder -21.265557 31.064122 27.792883
LeftArm 72.221218 -66.974484 -57.518337
LeftForeArm 6.986592 -0.000000 -5.034126
LeftHand 18.272352 -0.000000 28.626932
LeftHandThumb1 -26.253704 0.000000 33.147579
RightShoulder -21.043641 5.588379 -46.540678
RightArm -23.381620 28.834768 14.000486
RightForeArm -16.396983 -0.000000 14.806772
RightHand 14.433352 -0.000000 -19.306993
RightHandThumb1 -24.326973 -0.000000 -32.862282
LeftUpLeg 17.504933 -8.040327 25.575950
LeftLeg 27.705419 -0.000000 -0.000000
LeftFoot 31.295240 24.455646 -8.873507
LeftToeBase 25.582465 -0.000000 -0.000000
RightUpLeg -114.961027 -42.870201 -0.921792
RightLeg -7.806074 -0.000000 0.000000
RightFoot 44.033153 -17.125215 -8.951538
RightToeBase 23.529979 -0.000000 -0.000000
574
root 7.787221 47.823559 5.899085 -11.802952 -46.368879 56.377945
Spine -18.468218 -35.995642 -13.652041
Head 1.365356 -12.190235 -8.803318
LeftShoulder -20.782202 31.666921 27.557959
LeftArm 71.086153 -66.945766 -58.332724
LeftForeArm 6.687238 -0.000000 -5.249280
LeftHand 17.496992 -0.000000 28.733948
LeftHandThumb1 -26.253704 0.000000 33.147579
RightShoulder -20.998941 4.632982 -46.137551
RightArm -22.490486 29.820335 15.589210
RightForeArm -15.027108 -0.000000 14.469318
RightHand 15.220395 -0.000000 -19.239655
RightHandThumb1 -24.326973 -0.000000 -32.862282
LeftUpLeg 16.661015 -6.643821 25.991421
LeftLeg 27.921505 -0.000000 -0.000000
LeftFoot 31.830655 24.440373 -9.158482
LeftToeBase 25.198657 -0.000000 -0.000000
RightUpLeg -111.200741 -43.630057 -3.086483
RightLeg -6.245985 -0.000000 0.000000
RightFoot 44.611994 -17.518765 -9.215734
RightToeBase 23.361407 -0.000000 -0.000000
